<?xml version="1.0" standalone="no"?>
<!DOCTYPE svg PUBLIC "-//W3C//DTD SVG 20010904//EN"
 "http://www.w3.org/TR/2001/REC-SVG-20010904/DTD/svg10.dtd">
<svg version="1.0" xmlns="http://www.w3.org/2000/svg"
 width="50.000000pt" height="36.000000pt" viewBox="0 0 50.000000 36.000000"
 preserveAspectRatio="xMidYMid meet">

<g transform="translate(0.000000,36.000000) scale(0.100000,-0.100000)"
fill="#000000" stroke="none">
<path d="M140 345 c0 -10 -10 -15 -30 -15 -20 0 -30 -5 -30 -15 0 -8 -7 -15
-15 -15 -8 0 -15 -7 -15 -15 0 -9 -9 -15 -25 -15 -16 0 -25 -6 -25 -15 0 -12
13 -15 55 -15 42 0 55 -3 55 -15 0 -8 7 -15 15 -15 10 0 15 -10 15 -30 0 -20
-5 -30 -15 -30 -8 0 -15 -7 -15 -15 0 -11 -12 -15 -45 -15 -33 0 -45 4 -45 15
0 8 -4 15 -10 15 -5 0 -10 -7 -10 -15 0 -8 5 -15 10 -15 6 0 10 -13 10 -30 0
-20 5 -30 15 -30 8 0 15 -7 15 -15 0 -10 10 -15 30 -15 20 0 30 -5 30 -15 0
-12 15 -15 75 -15 60 0 75 3 75 15 0 12 15 15 75 15 60 0 75 3 75 15 0 8 7 15
15 15 10 0 15 10 15 30 0 20 5 30 15 30 8 0 15 7 15 15 0 8 -7 15 -15 15 -8 0
-15 7 -15 15 0 8 -7 15 -15 15 -11 0 -15 12 -15 45 0 33 -4 45 -15 45 -8 0
-15 7 -15 15 0 8 -7 15 -15 15 -8 0 -15 7 -15 15 0 8 -7 15 -15 15 -8 0 -15 7
-15 15 0 12 -17 15 -90 15 -73 0 -90 -3 -90 -15z m90 -30 c0 -8 -7 -15 -15
-15 -11 0 -15 -12 -15 -45 0 -33 4 -45 15 -45 8 0 15 -7 15 -15 0 -8 7 -15 15
-15 8 0 15 -7 15 -15 0 -8 -7 -15 -15 -15 -8 0 -15 -7 -15 -15 0 -8 -7 -15
-15 -15 -8 0 -15 -7 -15 -15 0 -8 7 -15 15 -15 8 0 15 -7 15 -15 0 -8 7 -15
15 -15 8 0 15 -7 15 -15 0 -12 -15 -15 -75 -15 -60 0 -75 3 -75 15 0 10 -10
15 -30 15 -20 0 -30 5 -30 15 0 10 10 15 30 15 20 0 30 5 30 15 0 8 7 15 15
15 8 0 15 7 15 15 0 8 7 15 15 15 10 0 15 10 15 30 0 20 -5 30 -15 30 -8 0
-15 7 -15 15 0 8 -7 15 -15 15 -8 0 -15 7 -15 15 0 8 -7 15 -15 15 -8 0 -15 7
-15 15 0 10 10 15 30 15 20 0 30 5 30 15 0 11 12 15 45 15 33 0 45 -4 45 -15z
m90 0 c0 -8 7 -15 15 -15 8 0 15 -7 15 -15 0 -8 7 -15 15 -15 11 0 15 -12 15
-45 l0 -45 -60 0 c-47 0 -60 3 -60 15 0 8 -7 15 -15 15 -11 0 -15 12 -15 45 0
33 4 45 15 45 8 0 15 7 15 15 0 10 10 15 30 15 20 0 30 -5 30 -15z"/>
<path d="M320 240 c0 -20 5 -30 15 -30 10 0 15 10 15 30 0 20 -5 30 -15 30
-10 0 -15 -10 -15 -30z"/>
</g>
</svg>
